<svg
    width="18px"
    height="18px"
    viewBox="0 0 17 17"
    version="1.1"
    xmlns="http://www.w3.org/2000/svg"
    >
    <title>Shape</title>
    <g
        id="Page-1"
        stroke="none"
        stroke-width="1"
        fill="none"
        fill-rule="evenodd"
    >
        <path
        d="M8.50189626,4.41810374 C6.24351506,4.41810374 4.42189626,6.23972254 4.42189626,8.49810374 C4.42189626,10.7564849 6.24351506,12.5781037 8.50189626,12.5781037 C10.7602775,12.5781037 12.5818963,10.7564849 12.5818963,8.49810374 C12.5818963,6.23972254 10.7602775,4.41810374 8.50189626,4.41810374 Z M8.50189626,11.331121 C6.94316788,11.331121 5.66887897,10.0606247 5.66887897,8.49810374 C5.66887897,6.93558282 6.93937535,5.66508645 8.50189626,5.66508645 C10.0644172,5.66508645 11.3349136,6.93558282 11.3349136,8.49810374 C11.3349136,10.0606247 10.0606247,11.331121 8.50189626,11.331121 L8.50189626,11.331121 Z M14.054155,3.96224205 C14.054155,4.5273285 13.5990519,4.97863915 13.0377579,4.97863915 C12.4726715,4.97863915 12.0213608,4.52353597 12.0213608,3.96224205 C12.0213608,3.40094813 12.476464,2.94584495 13.0377579,2.94584495 C13.5990519,2.94584495 14.054155,3.40094813 14.054155,3.96224205 Z M16.9402677,4.99380926 C16.8757948,3.63229225 16.5648076,2.42626882 15.5673731,1.43262688 C14.5737312,0.438984941 13.3677078,0.127997769 12.0061907,0.0597322922 C10.6029559,-0.0199107641 6.39704406,-0.0199107641 4.99380926,0.0597322922 C3.63608477,0.124205243 2.43006135,0.435192415 1.43262688,1.42883436 C0.435192415,2.4224763 0.127997769,3.62849972 0.0597322922,4.99001673 C-0.0199107641,6.39325153 -0.0199107641,10.5991634 0.0597322922,12.0023982 C0.124205243,13.3639152 0.435192415,14.5699387 1.43262688,15.5635806 C2.43006135,16.5572225 3.63229225,16.8682097 4.99380926,16.9364752 C6.39704406,17.0161182 10.6029559,17.0161182 12.0061907,16.9364752 C13.3677078,16.8720022 14.5737312,16.5610151 15.5673731,15.5635806 C16.5610151,14.5699387 16.8720022,13.3639152 16.9402677,12.0023982 C17.0199108,10.5991634 17.0199108,6.39704406 16.9402677,4.99380926 Z M15.605018,13.8691535 C15.2878781,14.6660692 14.6739277,15.2800197 13.872946,15.6012255 C12.6735064,16.0769354 9.82737863,15.9671562 8.50189626,15.9671562 C7.17641389,15.9671562 4.32622021,16.0728695 3.13084654,15.6012255 C2.33393076,15.2840856 1.71998034,14.6701351 1.39877449,13.8691535 C0.92306456,12.6697139 1.03284377,9.82358611 1.03284377,8.49810374 C1.03284377,7.17262137 0.927130457,4.32242769 1.39877449,3.12705402 C1.71591444,2.33013824 2.32986487,1.71618781 3.13084654,1.39498196 C4.33028611,0.919272034 7.17641389,1.02905125 8.50189626,1.02905125 C9.82737863,1.02905125 12.6775723,0.923337931 13.872946,1.39498196 C14.6698618,1.71212192 15.2838122,2.32607234 15.605018,3.12705402 C16.080728,4.32649358 15.9709488,7.17262137 15.9709488,8.49810374 C15.9709488,9.82358611 16.080728,12.6737798 15.605018,13.8691535 Z"
        id="Shape"
        fill="#FFFFFF"
        fill-rule="nonzero"
        ></path>
    </g>
</svg>