<svg
    width="21px"
    height="17px"
    viewBox="0 0 21 17"
    version="1.1"
    xmlns="http://www.w3.org/2000/svg"
    >
    <title>Path</title>
    <g
        id="Page-1"
        stroke="none"
        stroke-width="1"
        fill="none"
        fill-rule="evenodd"
    >
        <path
        d="M18.7796901,4.23670332 C18.7929766,4.42263194 18.7929766,4.60860145 18.7929766,4.79453007 C18.7929766,10.4655983 14.4765954,17 6.58750664,17 C4.15702547,17 1.89922734,16.2960631 0,15.0742406 C0.345325212,15.1140591 0.677323086,15.1273456 1.03593475,15.1273456 C3.04137198,15.1273456 4.88749438,14.4500225 6.36171865,13.2945505 C4.47577777,13.2546911 2.89530273,12.0195413 2.35076244,10.319529 C2.6164098,10.3593475 2.88201627,10.3859204 3.16095008,10.3859204 C3.54609378,10.3859204 3.93127836,10.3327746 4.28984915,10.2398512 C2.32423041,9.84138016 0.849965251,8.11483586 0.849965251,6.0296799 L0.849965251,5.97657496 C1.42103757,6.29532726 2.08515596,6.49454233 2.78901108,6.52107436 C1.6335391,5.75074609 0.876538163,4.4359184 0.876538163,2.94840767 C0.876538163,2.15154736 1.08899881,1.42107845 1.46089694,0.783573852 C3.57262581,3.38669719 6.74686235,5.08666857 10.3062017,5.27263808 C10.2398103,4.95388578 10.1999509,4.6218879 10.1999509,4.28984915 C10.1999509,1.92575937 12.1124647,0 14.4898001,0 C15.7249499,0 16.8405625,0.517967377 17.6241773,1.35468705 C18.5936797,1.16875843 19.5233637,0.810146764 20.3468378,0.3187523 C20.0280446,1.31486857 19.3507216,2.15158824 18.4608969,2.68280119 C19.3241895,2.58987776 20.1609092,2.35076244 20.9311966,2.01876456 C20.3469196,2.86872981 19.6164098,3.62573076 18.7796901,4.23670332 Z"
        id="Path"
        fill="#FFFFFF"
        fill-rule="nonzero"
        ></path>
    </g>
</svg>