<svg
    width="24px"
    height="17px"
    viewBox="0 0 24 17"
    version="1.1"
    xmlns="http://www.w3.org/2000/svg"
    >
    <title>Shape</title>
    <g
        id="Page-1"
        stroke="none"
        stroke-width="1"
        fill="none"
        fill-rule="evenodd"
    >
        <path
        d="M3.49743905,0.311170988 C1.63931801,0.457192064 0.234917548,1.96800352 0.144535341,3.82964843 C0.0699438286,5.36352687 0,7.12840853 0,8.3468064 C0,9.57915685 0.0716152804,11.3708484 0.147135377,12.9166318 C0.236793765,14.7544668 1.60901282,16.255202 3.44127637,16.42449 C5.46939977,16.6116212 8.40372624,16.8002381 11.9999667,16.8002381 C15.5868736,16.8002381 18.5152953,16.6127355 20.5429425,16.4259758 C22.3822537,16.2565163 23.7572728,14.7459048 23.8456074,12.901022 C23.9237323,11.2733804 24,9.41102118 24,8.34681593 C24,7.29418226 23.9254085,5.46025203 23.8482122,3.84527722 C23.7589252,1.97639412 22.3522866,0.456277766 20.4871179,0.310085259 C18.4908044,0.153644991 15.6113359,0 11.9998571,0 C8.37909257,0 5.4940525,0.154392621 3.4973581,0.311204322 L3.49743905,0.311170988 Z M9.60038096,4.78480455 L15.7871336,8.3468064 L9.60038096,11.9089987 L9.60038096,4.78480455 Z"
        id="Shape"
        fill="#FFFFFF"
        fill-rule="nonzero"
        ></path>
    </g>
</svg>